<svg width="17" height="17" viewBox="0 0 17 17" fill="none" xmlns="http://www.w3.org/2000/svg">
<g clip-path="url(#clip0_335_257)">
<path fill-rule="evenodd" clip-rule="evenodd" d="M0.718292 7.4323C0.718292 11.4269 3.84126 14.6651 7.69364 14.6651C11.546 14.6651 14.669 11.4269 14.669 7.4323C14.669 3.43772 11.546 0.199463 7.69364 0.199463C3.84126 0.199463 0.718292 3.43772 0.718292 7.4323ZM2.11336 7.4323C2.11336 4.23663 4.61174 1.64603 7.69364 1.64603C10.7755 1.64603 13.2739 4.23663 13.2739 7.4323C13.2739 10.628 10.7755 13.2186 7.69364 13.2186C4.61174 13.2186 2.11336 10.628 2.11336 7.4323ZM8.07561 8.20333C8.03655 8.4666 7.83147 8.6995 7.54827 8.6995H7.47015C7.18695 8.6995 6.98187 8.47673 6.94281 8.20333L6.84516 7.51476C6.79633 7.1806 6.98187 6.9477 7.29437 6.9072C8.14397 6.79581 8.53459 6.52241 8.53459 6.02624V6.00599C8.53459 5.55032 8.20256 5.28704 7.63616 5.28704C7.21625 5.28704 6.85492 5.41868 6.50337 5.69208C6.38618 5.78322 6.22993 5.8541 6.06392 5.8541C5.69283 5.8541 5.38033 5.53007 5.38033 5.14528C5.38033 4.95289 5.45846 4.75037 5.63424 4.59848C6.15181 4.15293 6.8061 3.86941 7.66546 3.86941C9.07169 3.86941 10.0287 4.61873 10.0287 5.96548V5.98574C10.0287 7.27174 9.16934 7.79829 8.10491 8.02106L8.07561 8.20333ZM6.62055 10.2488V10.2285C6.62055 9.74247 6.98187 9.36781 7.47015 9.36781C7.95842 9.36781 8.31975 9.74247 8.31975 10.2285V10.2488C8.31975 10.7348 7.95842 11.1095 7.47015 11.1095C6.98187 11.1095 6.62055 10.7348 6.62055 10.2488Z" fill="black" fill-opacity="0.6"/>
</g>
<defs>
<clipPath id="clip0_335_257">
<rect width="15.9437" height="16.5322" fill="white" transform="translate(0.718292 0.199463)"/>
</clipPath>
</defs>
</svg>
